<?xml version="1.0" standalone="no"?>
 <!DOCTYPE svg PUBLIC "-//W3C//DTD SVG 1.0//EN"
"http://www.w3.org/TR/2001/REC-SVG-20010904/DTD/svg10.dtd">
<svg width="1368" height="764.75" xmlns="http://www.w3.org/2000/svg"
xmlns:xlink="http://www.w3.org/1999/xlink"> <rect width="100%" height="100%" fill="white"></rect><g id="network" style="fill: #008000;"><path class="link" style="stroke-width: 3px; fill: none; stroke: #ffff00; cursor: pointer;" d="M709.469156562637,465.821130507887A50.815078294211744,50.815078294211744 0,0,1 663.480464640529,487.436227022599"></path><path class="link" style="stroke-width: 3px; fill: none; stroke: #ffff00; cursor: pointer;" d="M709.469156562637,465.821130507887A61.199933484807374,61.199933484807374 0,0,1 651.197236755722,447.117782664217"></path><path class="link" style="stroke-width: 3px; fill: none; stroke: #ffff00; cursor: pointer;" d="M709.469156562637,465.821130507887A57.21823917189551,57.21823917189551 0,0,1 766.205338920184,458.409483901133"></path><path class="link" style="stroke-width: 3px; fill: none; stroke: #ffff00; cursor: pointer;" d="M709.469156562637,465.821130507887A50.49733063983134,50.49733063983134 0,0,1 682.218258746691,508.33429282232"></path><path class="link" style="stroke-width: 3px; fill: none; stroke: #ffff00; cursor: pointer;" d="M709.469156562637,465.821130507887A76.44878214523587,76.44878214523587 0,0,1 633.912915573959,477.468908800358"></path><path class="link" style="stroke-width: 3px; fill: none; stroke: #ffff00; cursor: pointer;" d="M709.469156562637,465.821130507887A59.53649550680232,59.53649550680232 0,0,1 698.338177891391,407.334417392413"></path><path class="link" style="stroke-width: 3px; fill: none; stroke: #ffff00; cursor: pointer;" d="M709.469156562637,465.821130507887A79.28979406215169,79.28979406215169 0,0,1 775.917385758151,422.560244257154"></path><path class="link" style="stroke-width: 3px; fill: none; stroke: #ffff00; cursor: pointer;" d="M709.469156562637,465.821130507887A44.84838758804543,44.84838758804543 0,0,1 729.268026238911,506.062684016536"></path><path class="link" style="stroke-width: 3px; fill: none; stroke: #ffff00; cursor: pointer;" d="M738.543800874861,310.469573076973A54.61679757474465,54.61679757474465 0,0,1 748.827375469942,364.10950848771"></path><path class="link" style="stroke-width: 3px; fill: none; stroke: #ffff00; cursor: pointer;" d="M738.543800874861,310.469573076973A63.454943852284245,63.454943852284245 0,0,1 779.409676034538,359.013472248035"></path><path class="link" style="stroke-width: 3px; fill: none; stroke: #ffff00; cursor: pointer;" d="M738.543800874861,310.469573076973A104.87750084619368,104.87750084619368 0,0,1 698.338177891391,407.334417392413"></path><path class="link" style="stroke-width: 3px; fill: none; stroke: #ffff00; cursor: pointer;" d="M688.903354941116,329.516101438324A69.1924276754593,69.1924276754593 0,0,1 748.827375469942,364.10950848771"></path><path class="link" style="stroke-width: 3px; fill: none; stroke: #ffff00; cursor: pointer;" d="M688.903354941116,329.516101438324A78.38817628975343,78.38817628975343 0,0,1 698.338177891391,407.334417392413"></path><path class="link" style="stroke-width: 3px; fill: none; stroke: #ffff00; cursor: pointer;" d="M760.277489043157,486.014274730227A100.13490009309463,100.13490009309463 0,0,1 698.338177891391,407.334417392413"></path><path class="link" style="stroke-width: 3px; fill: none; stroke: #ffff00; cursor: pointer;" d="M600.496174697465,417.998360951508A68.21601448522996,68.21601448522996 0,0,1 633.912915573959,477.468908800358"></path><path class="link" style="stroke-width: 3px; fill: none; stroke: #ffff00; cursor: pointer;" d="M600.496174697465,417.998360951508A98.42142694165626,98.42142694165626 0,0,1 698.338177891391,407.334417392413"></path><path class="link" style="stroke-width: 3px; fill: none; stroke: #ffff00; cursor: pointer;" d="M651.197236755722,447.117782664217A53.57036026377397,53.57036026377397 0,0,1 597.628428380738,447.52554248909"></path><path class="link" style="stroke-width: 3px; fill: none; stroke: #ffff00; cursor: pointer;" d="M651.197236755722,447.117782664217A61.68455628037204,61.68455628037204 0,0,1 698.338177891391,407.334417392413"></path><path class="link" style="stroke-width: 3px; fill: none; stroke: #ffff00; cursor: pointer;" d="M766.205338920184,458.409483901133A84.93888370456898,84.93888370456898 0,0,1 698.338177891391,407.334417392413"></path><path class="link" style="stroke-width: 3px; fill: none; stroke: #ffff00; cursor: pointer;" d="M748.827375469942,364.10950848771A66.4646659658035,66.4646659658035 0,0,1 698.338177891391,407.334417392413"></path><path class="link" style="stroke-width: 3px; fill: none; stroke: #ffff00; cursor: pointer;" d="M748.827375469942,364.10950848771A64.4232657461932,64.4232657461932 0,0,1 775.917385758151,422.560244257154"></path><path class="link" style="stroke-width: 3px; fill: none; stroke: #ffff00; cursor: pointer;" d="M748.827375469942,364.10950848771A60.81882348662268,60.81882348662268 0,0,1 800.651818424916,395.939626343345"></path><path class="link" style="stroke-width: 3px; fill: none; stroke: #ffff00; cursor: pointer;" d="M748.827375469942,364.10950848771A49.87051889543057,49.87051889543057 0,0,1 750.951507607268,413.934770329096"></path><path class="link" style="stroke-width: 3px; fill: none; stroke: #ffff00; cursor: pointer;" d="M748.827375469942,364.10950848771A47.38697546116444,47.38697546116444 0,0,1 718.427837700564,327.758531241353"></path><path class="link" style="stroke-width: 3px; fill: none; stroke: #ffff00; cursor: pointer;" d="M764.458953240484,327.478083822921A103.67734055196055,103.67734055196055 0,0,1 698.338177891391,407.334417392413"></path><path class="link" style="stroke-width: 3px; fill: none; stroke: #ffff00; cursor: pointer;" d="M639.568332506176,348.177156994688A83.38750616469058,83.38750616469058 0,0,1 698.338177891391,407.334417392413"></path><path class="link" style="stroke-width: 3px; fill: none; stroke: #ffff00; cursor: pointer;" d="M597.628428380738,447.52554248909A47.04433225082273,47.04433225082273 0,0,1 633.912915573959,477.468908800358"></path><path class="link" style="stroke-width: 3px; fill: none; stroke: #ffff00; cursor: pointer;" d="M597.628428380738,447.52554248909A108.4332983129961,108.4332983129961 0,0,1 698.338177891391,407.334417392413"></path><path class="link" style="stroke-width: 3px; fill: none; stroke: #ffff00; cursor: pointer;" d="M682.218258746691,508.33429282232A57.324323893602035,57.324323893602035 0,0,1 633.912915573959,477.468908800358"></path><path class="link" style="stroke-width: 3px; fill: none; stroke: #ffff00; cursor: pointer;" d="M682.218258746691,508.33429282232A102.27818257130104,102.27818257130104 0,0,1 698.338177891391,407.334417392413"></path><path class="link" style="stroke-width: 3px; fill: none; stroke: #ffff00; cursor: pointer;" d="M633.912915573959,477.468908800358A30,20 -45,1,1 634.912915573959,478.468908800358"></path><path class="link" style="stroke-width: 3px; fill: none; stroke: #ffff00; cursor: pointer;" d="M633.912915573959,477.468908800358A66.0866861080271,66.0866861080271 0,0,1 626.910813102045,411.754217583601"></path><path class="link" style="stroke-width: 3px; fill: none; stroke: #ffff00; cursor: pointer;" d="M633.912915573959,477.468908800358A95.23371939455598,95.23371939455598 0,0,1 698.338177891391,407.334417392413"></path><path class="link" style="stroke-width: 3px; fill: none; stroke: #ffff00; cursor: pointer;" d="M626.910813102045,411.754217583601A71.56397888938483,71.56397888938483 0,0,1 698.338177891391,407.334417392413"></path><path class="link" style="stroke-width: 3px; fill: none; stroke: #ffff00; cursor: pointer;" d="M779.409676034538,359.013472248035A94.37956108618164,94.37956108618164 0,0,1 698.338177891391,407.334417392413"></path><path class="link" style="stroke-width: 3px; fill: none; stroke: #ffff00; cursor: pointer;" d="M779.409676034538,359.013472248035A63.642661196350836,63.642661196350836 0,0,1 775.917385758151,422.560244257154"></path><path class="link" style="stroke-width: 3px; fill: none; stroke: #ffff00; cursor: pointer;" d="M779.409676034538,359.013472248035A42.60011114543803,42.60011114543803 0,0,1 800.651818424916,395.939626343345"></path><path class="link" style="stroke-width: 3px; fill: none; stroke: #ffff00; cursor: pointer;" d="M779.409676034538,359.013472248035A61.8564170732805,61.8564170732805 0,0,1 750.951507607268,413.934770329096"></path><path class="link" style="stroke-width: 3px; fill: none; stroke: #ffff00; cursor: pointer;" d="M779.409676034538,359.013472248035A68.52485639475731,68.52485639475731 0,0,1 718.427837700564,327.758531241353"></path><path class="link" style="stroke-width: 3px; fill: none; stroke: #ffff00; cursor: pointer;" d="M698.338177891391,407.334417392413A87.35765609899268,87.35765609899268 0,0,1 663.480464640529,487.436227022599"></path><path class="link" style="stroke-width: 3px; fill: none; stroke: #ffff00; cursor: pointer;" d="M698.338177891391,407.334417392413A79.05921386498245,79.05921386498245 0,0,1 775.917385758151,422.560244257154"></path><path class="link" style="stroke-width: 3px; fill: none; stroke: #ffff00; cursor: pointer;" d="M698.338177891391,407.334417392413A102.94621072324757,102.94621072324757 0,0,1 800.651818424916,395.939626343345"></path><path class="link" style="stroke-width: 3px; fill: none; stroke: #ffff00; cursor: pointer;" d="M698.338177891391,407.334417392413A53.025721331070756,53.025721331070756 0,0,1 750.951507607268,413.934770329096"></path><path class="link" style="stroke-width: 3px; fill: none; stroke: #ffff00; cursor: pointer;" d="M698.338177891391,407.334417392413A82.07262691040641,82.07262691040641 0,0,1 718.427837700564,327.758531241353"></path><path class="link" style="stroke-width: 3px; fill: none; stroke: #ffff00; cursor: pointer;" d="M698.338177891391,407.334417392413A103.45978034678265,103.45978034678265 0,0,1 729.268026238911,506.062684016536"></path><path class="link" style="stroke-width: 3px; fill: none; stroke: #ffff00; cursor: pointer;" d="M775.917385758151,422.560244257154A30,20 -45,1,1 776.917385758151,423.560244257154"></path><path class="link" style="stroke-width: 3px; fill: none; stroke: #ffff00; cursor: pointer;" d="M750.951507607268,413.934770329096A66.4302628385078,66.4302628385078 0,0,1 709.469156562637,465.821130507887"></path><path class="link" style="stroke-width: 3px; fill: none; stroke: #ffff00; cursor: pointer;" d="M608.633650047595,360.459639728566A101.21337410003412,101.21337410003412 0,0,1 698.338177891391,407.334417392413"></path><path class="link" style="stroke-width: 3px; fill: none; stroke: #ffff00; cursor: pointer;" d="M649.067364450836,315.443185105585A104.2670208085268,104.2670208085268 0,0,1 698.338177891391,407.334417392413"></path><path class="node node_CHEBI:28304" d="M0,6.383076486422923A6.383076486422923,6.383076486422923 0 1,1 0,-6.383076486422923A6.383076486422923,6.383076486422923 0 1,1 0,6.383076486422923Z" transform="translate(709.469156562637,465.821130507887)" style="fill: #339933; stroke: #003399;" ></path><path class="node node_EBI-2528478" d="M0,-22.795070569547775L13.160740129524923,0 0,22.795070569547775 -13.160740129524923,0Z" style="fill: #ffcc66; stroke: #4682b4;" transform="translate(663.480464640529,487.436227022599)" ></path><path class="node node_EBI-2881451" d="M0,-22.795070569547775L13.160740129524923,0 0,22.795070569547775 -13.160740129524923,0Z" style="fill: #ffcc66; stroke: #4682b4;" transform="translate(738.543800874861,310.469573076973)" ></path><path class="node node_EBI-2881443" d="M0,-22.795070569547775L13.160740129524923,0 0,22.795070569547775 -13.160740129524923,0Z" style="fill: #ffcc66; stroke: #4682b4;" transform="translate(688.903354941116,329.516101438324)" ></path><path class="node node_MULT_81_VAR1_human" d="M0,-22.795070569547775L13.160740129524923,0 0,22.795070569547775 -13.160740129524923,0Z" style="fill: #ffcc66; stroke: #4682b4;" transform="translate(760.277489043157,486.014274730227)" ></path><path class="node node_O94985" d="M-8,-8L8,-8 8,8 -8,8Z" style="fill: #4682b4; stroke: #4682b4;" transform="translate(600.496174697465,417.998360951508)" ></path><path class="node node_P09038" d="M-8,-8L8,-8 8,8 -8,8Z" style="fill: #4682b4; stroke: #4682b4;" transform="translate(651.197236755722,447.117782664217)" ></path><path class="node node_P14210" d="M-8,-8L8,-8 8,8 -8,8Z" style="fill: #4682b4; stroke: #4682b4;" transform="translate(766.205338920184,458.409483901133)" ></path><path class="node node_P14543" d="M-8,-8L8,-8 8,8 -8,8Z" style="fill: #4682b4; stroke: #4682b4;" transform="translate(748.827375469942,364.10950848771)" ></path><path class="node node_P15692" d="M-8,-8L8,-8 8,8 -8,8Z" style="fill: #4682b4; stroke: #4682b4;" transform="translate(764.458953240484,327.478083822921)" ></path><path class="node node_P21781" d="M-8,-8L8,-8 8,8 -8,8Z" style="fill: #4682b4; stroke: #4682b4;" transform="translate(639.568332506176,348.177156994688)" ></path><path class="node node_P28300" d="M-8,-8L8,-8 8,8 -8,8Z" style="fill: #4682b4; stroke: #4682b4;" transform="translate(597.628428380738,447.52554248909)" ></path><path class="node node_P28799" d="M-8,-8L8,-8 8,8 -8,8Z" style="fill: #4682b4; stroke: #4682b4;" transform="translate(682.218258746691,508.33429282232)" ></path><path class="node node_P35555" d="M-8,-8L8,-8 8,8 -8,8Z" style="fill: #4682b4; stroke: #4682b4;" transform="translate(633.912915573959,477.468908800358)" ></path><path class="node node_P55001" d="M-8,-8L8,-8 8,8 -8,8Z" style="fill: #4682b4; stroke: #4682b4;" transform="translate(626.910813102045,411.754217583601)" ></path><path class="node node_P98095" d="M-8,-8L8,-8 8,8 -8,8Z" style="fill: #4682b4; stroke: #4682b4;" transform="translate(779.409676034538,359.013472248035)" ></path><path class="node node_P98160" d="M-8,-8L8,-8 8,8 -8,8Z" style="fill: #4682b4; stroke: #4682b4;" transform="translate(698.338177891391,407.334417392413)" ></path><path class="node node_P39060-PRO_0000005794" d="M-7.58946638440411,-2.5298221281347035H-2.5298221281347035V-7.58946638440411H2.5298221281347035V-2.5298221281347035H7.58946638440411V2.5298221281347035H2.5298221281347035V7.58946638440411H-2.5298221281347035V2.5298221281347035H-7.58946638440411Z" transform="translate(775.917385758151,422.560244257154)" style="fill: #4682b4; stroke: #003399;" ></path><path class="node node_P39059-PRO_0000005789" d="M-7.58946638440411,-2.5298221281347035H-2.5298221281347035V-7.58946638440411H2.5298221281347035V-2.5298221281347035H7.58946638440411V2.5298221281347035H2.5298221281347035V7.58946638440411H-2.5298221281347035V2.5298221281347035H-7.58946638440411Z" transform="translate(800.651818424916,395.939626343345)" style="fill: #4682b4; stroke: #003399;" ></path><path class="node node_PFRAG_3_human" d="M-7.58946638440411,-2.5298221281347035H-2.5298221281347035V-7.58946638440411H2.5298221281347035V-2.5298221281347035H7.58946638440411V2.5298221281347035H2.5298221281347035V7.58946638440411H-2.5298221281347035V2.5298221281347035H-7.58946638440411Z" transform="translate(750.951507607268,413.934770329096)" style="fill: #4682b4; stroke: #003399;" ></path><path class="node node_PFRAG_4_human" d="M-7.58946638440411,-2.5298221281347035H-2.5298221281347035V-7.58946638440411H2.5298221281347035V-2.5298221281347035H7.58946638440411V2.5298221281347035H2.5298221281347035V7.58946638440411H-2.5298221281347035V2.5298221281347035H-7.58946638440411Z" transform="translate(718.427837700564,327.758531241353)" style="fill: #4682b4; stroke: #003399;" ></path><path class="node node_Q6PCB0" d="M-8,-8L8,-8 8,8 -8,8Z" style="fill: #4682b4; stroke: #4682b4;" transform="translate(608.633650047595,360.459639728566)" ></path><path class="node node_Q14118" d="M-8,-8L8,-8 8,8 -8,8Z" style="fill: #4682b4; stroke: #4682b4;" transform="translate(649.067364450836,315.443185105585)" ></path><path class="node node_Q14767" d="M-8,-8L8,-8 8,8 -8,8Z" style="fill: #4682b4; stroke: #4682b4;" transform="translate(729.268026238911,506.062684016536)" ></path></g></svg> 